<?xml version="1.0" standalone="no"?>
<!DOCTYPE svg PUBLIC "-//W3C//DTD SVG 20010904//EN"
 "http://www.w3.org/TR/2001/REC-SVG-20010904/DTD/svg10.dtd">
<svg version="1.0" xmlns="http://www.w3.org/2000/svg"
 width="512.000000pt" height="512.000000pt" viewBox="0 0 512.000000 512.000000"
 preserveAspectRatio="xMidYMid meet">

<g transform="translate(0.000000,512.000000) scale(0.100000,-0.100000)"
fill="#000000" stroke="none">
<path d="M2463 5102 c-65 -23 -114 -61 -151 -115 -61 -89 -57 48 -60 -1906 -2
-1762 -3 -1794 -22 -1821 -26 -37 -70 -54 -117 -45 -34 6 -106 74 -608 575
-543 541 -573 569 -630 590 -150 55 -319 -16 -387 -165 -32 -70 -32 -180 1
-250 19 -40 201 -227 955 -982 654 -654 944 -938 976 -954 39 -20 60 -23 150
-23 97 0 110 2 150 26 26 15 443 425 967 950 991 992 958 955 970 1072 14 135
-81 277 -212 316 -22 7 -68 12 -102 12 -128 -1 -115 10 -744 -618 -545 -544
-566 -564 -603 -564 -45 0 -91 22 -108 53 -10 17 -14 386 -18 1827 l-5 1805
-22 47 c-67 146 -236 221 -380 170z"/>
</g>
</svg>
