<?xml version="1.0" standalone="no"?>
<!DOCTYPE svg PUBLIC "-//W3C//DTD SVG 20010904//EN"
 "http://www.w3.org/TR/2001/REC-SVG-20010904/DTD/svg10.dtd">
<svg version="1.0" xmlns="http://www.w3.org/2000/svg"
 width="512.000000pt" height="512.000000pt" viewBox="0 0 512.000000 512.000000"
 preserveAspectRatio="xMidYMid meet">

<g transform="translate(0.000000,512.000000) scale(0.100000,-0.100000)"
fill="#000000" stroke="none">
<path d="M790 4904 c-93 -15 -145 -31 -220 -66 -120 -58 -231 -168 -288 -288
-68 -143 -67 -137 -67 -710 0 -573 -1 -567 67 -710 57 -120 168 -231 288 -288
143 -68 137 -67 710 -67 573 0 567 -1 710 67 120 57 231 168 288 288 68 143
67 137 67 710 0 573 1 567 -67 710 -54 114 -168 229 -278 284 -145 71 -130 69
-685 72 -275 1 -511 0 -525 -2z"/>
<path d="M3350 4904 c-93 -15 -145 -31 -220 -66 -120 -58 -231 -168 -288 -288
-68 -143 -67 -137 -67 -710 0 -573 -1 -567 67 -710 57 -120 168 -231 288 -288
143 -68 137 -67 710 -67 573 0 567 -1 710 67 120 57 231 168 288 288 68 143
67 137 67 710 0 573 1 567 -67 710 -54 114 -168 229 -278 284 -145 71 -130 69
-685 72 -275 1 -511 0 -525 -2z"/>
<path d="M790 2344 c-93 -15 -145 -31 -220 -66 -120 -58 -231 -168 -288 -288
-68 -143 -67 -137 -67 -710 0 -573 -1 -567 67 -710 57 -120 168 -231 288 -288
143 -68 137 -67 710 -67 573 0 567 -1 710 67 120 57 231 168 288 288 68 143
67 137 67 710 0 573 1 567 -67 710 -54 114 -168 229 -278 284 -145 71 -130 69
-685 72 -275 1 -511 0 -525 -2z"/>
<path d="M3350 2344 c-93 -15 -145 -31 -220 -66 -120 -58 -231 -168 -288 -288
-68 -143 -67 -137 -67 -710 0 -573 -1 -567 67 -710 57 -120 168 -231 288 -288
143 -68 137 -67 710 -67 573 0 567 -1 710 67 120 57 231 168 288 288 68 143
67 137 67 710 0 573 1 567 -67 710 -54 114 -168 229 -278 284 -145 71 -130 69
-685 72 -275 1 -511 0 -525 -2z"/>
</g>
</svg>
